<?xml version="1.0" encoding="utf-8"?>
<!-- Generator: Adobe Illustrator 25.2.3, SVG Export Plug-In . SVG Version: 6.00 Build 0)  -->
<svg version="1.1" id="Layer_1" xmlns="http://www.w3.org/2000/svg" xmlns:xlink="http://www.w3.org/1999/xlink" x="0px" y="0px"
	 viewBox="0 0 220 83.7" style="enable-background:new 0 0 220 83.7;" xml:space="preserve">
<style type="text/css">
	.st0{fill:#FFFFFF;}
</style>
<g>
	<path d="M216.6,67.3c0,5.2-4.2,9.4-9.4,9.4H12.9c-5.2,0-9.4-4.2-9.4-9.4V16.4c0-5.2,4.2-9.4,9.4-9.4h194.3c5.2,0,9.4,4.2,9.4,9.4
		V67.3z"/>
	<g>
		<path class="st0" d="M59,53.1c-1.1,2.5-1.7,3.6-3.1,5.8c-2,3.1-4.9,6.9-8.4,7c-3.1,0-4-2-8.2-2c-4.3,0-5.2,2.1-8.3,2
			c-3.5,0-6.2-3.5-8.3-6.6c-5.7-8.6-6.3-18.8-2.8-24.1c2.5-3.8,6.4-6.1,10.1-6.1c3.8,0,6.1,2.1,9.2,2.1c3,0,4.8-2.1,9.2-2.1
			c3.3,0,6.8,1.8,9.2,4.9C49.5,38.4,50.8,50,59,53.1z"/>
		<g>
			<path class="st0" d="M45.1,25.6c1.6-2,2.8-4.9,2.3-7.8c-2.6,0.2-5.6,1.8-7.3,3.9c-1.6,1.9-2.9,4.8-2.4,7.6
				C40.5,29.5,43.4,27.8,45.1,25.6z"/>
		</g>
	</g>
	<g>
		<g>
			<path class="st0" d="M76.3,35l-8.1,23.9h3.7l2.4-7.3h7.9l2.5,7.3h3.8L80.3,35H76.3z M78.2,38.9c0.3,1.1,0.6,2.2,0.9,3.4l2.2,6.3
				h-6.2l2.2-6.4C77.6,41.2,77.9,40.1,78.2,38.9z"/>
			<path class="st0" d="M99,41.2c-2.5,0-4.4,1-5.7,2.8l-0.1-2.4h-3.3l0,0.3c0.1,1.5,0.1,3.1,0.1,5.4v18.4h3.6v-8.6
				c1.1,1.3,2.9,2.1,4.9,2.1c2.1,0,4.1-0.8,5.5-2.3c1.6-1.7,2.4-4.1,2.4-7c0-2.5-0.7-4.7-2.1-6.4C103,42.1,101.1,41.2,99,41.2z
				 M98.1,44.2c3.2,0,4.7,3,4.7,5.9c0,3.8-1.8,6.2-4.8,6.2c-2,0-3.8-1.4-4.3-3.4c-0.1-0.3-0.1-0.7-0.1-1.2v-2.9
				c0-0.3,0.1-0.6,0.1-0.9c0-0.1,0-0.2,0.1-0.3C94.3,45.7,96.1,44.2,98.1,44.2z"/>
			<path class="st0" d="M117.6,41.2c-2.5,0-4.4,1-5.7,2.8l-0.1-2.4h-3.3l0,0.3c0.1,1.5,0.1,3.1,0.1,5.4v18.4h3.6v-8.6
				c1.1,1.3,2.9,2.1,4.9,2.1c2.1,0,4.1-0.8,5.5-2.3c1.6-1.7,2.4-4.1,2.4-7c0-2.5-0.7-4.7-2.1-6.4C121.6,42.1,119.7,41.2,117.6,41.2z
				 M116.7,44.2c3.2,0,4.7,3,4.7,5.9c0,3.8-1.8,6.2-4.8,6.2c-2,0-3.8-1.4-4.3-3.4c-0.1-0.3-0.1-0.7-0.1-1.2v-2.9
				c0-0.3,0.1-0.6,0.1-0.9c0-0.1,0-0.2,0.1-0.3C112.9,45.7,114.7,44.2,116.7,44.2z"/>
			<path class="st0" d="M140.9,45.1c-3.4-1.3-4.5-2.3-4.5-4.2c0-1.6,1.3-3.2,4.1-3.2c2.3,0,3.8,0.8,4.2,1.1l0.3,0.2l1-3l-0.2-0.1
				c-0.6-0.4-2.3-1.2-5.3-1.2c-4.6,0-7.8,2.7-7.8,6.6c0,3.1,2,5.3,6.3,6.9c3.1,1.1,4.2,2.3,4.2,4.3c0,2.3-1.8,3.7-4.6,3.7
				c-1.8,0-3.7-0.5-5.2-1.5l-0.3-0.2l-1,3.1l0.2,0.1c1.4,0.9,3.9,1.6,6.1,1.6c6.2,0,8.4-3.8,8.4-7C147,48.9,145.3,46.9,140.9,45.1z"
				/>
			<path class="st0" d="M153.5,37.5l-3.5,1.1v3h-2.6v2.9h2.6v8.9c0,2.1,0.4,3.6,1.3,4.6c0.8,0.9,2,1.4,3.5,1.4
				c1.4,0,2.3-0.3,2.8-0.4l0.2-0.1l-0.2-2.9l-0.3,0.1c-0.5,0.1-0.9,0.2-1.7,0.2c-1.4,0-2-0.9-2-3v-8.7h4.4v-2.9h-4.4L153.5,37.5
				L153.5,37.5z"/>
			<path class="st0" d="M166.9,41.2c-5.1,0-8.6,3.8-8.6,9.2c0,5.2,3.4,8.9,8.3,8.9h0c4.1,0,8.6-2.9,8.6-9.2c0-2.6-0.8-4.8-2.3-6.4
				C171.4,42.1,169.3,41.2,166.9,41.2z M166.8,44.1c3.3,0,4.7,3.2,4.7,6.1c0,3.6-2,6.3-4.8,6.3h0c-2.7,0-4.7-2.6-4.7-6.1
				C161.9,47.2,163.4,44.1,166.8,44.1z"/>
			<path class="st0" d="M186.3,41.4l-0.2-0.1c-0.3-0.1-0.6-0.1-0.9-0.1c-1.9,0-3.6,1.1-4.5,2.9l-0.1-2.5h-3.2l0,0.3
				c0.1,1.4,0.1,3,0.1,5.2l0,11.8h3.6v-9.2c0-0.5,0-1,0.1-1.4c0.4-2.2,1.9-3.6,3.8-3.6c0.4,0,0.7,0,1,0.1l0.4,0L186.3,41.4
				L186.3,41.4z"/>
			<path class="st0" d="M194.4,41.2c-4.8,0-8.2,3.8-8.2,9.4c0,5.3,3.3,8.7,8.5,8.7c2.7,0,4.6-0.6,5.7-1.1l0.2-0.1l-0.7-2.7l-0.3,0.1
				c-1,0.4-2.3,0.8-4.5,0.8c-1.6,0-5.2-0.5-5.4-5.2l11.7,0l0-0.2c0.1-0.4,0.1-0.9,0.1-1.5C201.6,45.6,199.7,41.2,194.4,41.2z
				 M194.2,43.9c1.1,0,2,0.3,2.7,1c1,1.1,1.2,2.6,1.2,3.4h-8.2C190.2,46.2,191.5,43.9,194.2,43.9z"/>
		</g>
		<g>
			<path class="st0" d="M68.2,18.7c1-0.1,2.2-0.2,3.5-0.2c2.3,0,4,0.5,5.1,1.4c1.1,0.9,1.8,2.2,1.8,4.1c0,1.8-0.7,3.4-1.8,4.4
				c-1.2,1.1-3.1,1.6-5.6,1.6c-1.2,0-2.1,0-3-0.1L68.2,18.7L68.2,18.7z M69.8,28.7c0.4,0.1,1,0.1,1.6,0.1c3.5,0,5.4-1.7,5.4-4.8
				c0-2.7-1.7-4.4-5.1-4.4c-0.8,0-1.5,0.1-1.9,0.2V28.7z"/>
			<path class="st0" d="M84.3,30c-2.4,0-4.3-1.6-4.3-4.2c0-2.7,2-4.3,4.5-4.3c2.6,0,4.3,1.7,4.3,4.2C88.8,28.7,86.5,30,84.3,30
				L84.3,30z M84.4,28.9c1.6,0,2.7-1.3,2.7-3.2c0-1.4-0.8-3.1-2.7-3.1c-1.9,0-2.8,1.6-2.8,3.2C81.7,27.6,82.8,28.9,84.4,28.9
				L84.4,28.9z"/>
			<path class="st0" d="M91.4,21.7l1.2,4.1c0.2,0.9,0.5,1.8,0.7,2.6h0.1c0.2-0.8,0.5-1.7,0.8-2.6l1.5-4.1H97l1.4,4.1
				c0.3,1,0.6,1.8,0.8,2.7h0.1c0.1-0.8,0.4-1.7,0.7-2.6l1.3-4.1h1.6l-2.9,8.1h-1.5L97.1,26c-0.3-0.9-0.6-1.7-0.8-2.7h0
				c-0.2,1-0.5,1.8-0.8,2.7L94,29.9h-1.5l-2.7-8.1C89.7,21.7,91.4,21.7,91.4,21.7z"/>
			<path class="st0" d="M104.5,23.9c0-0.9,0-1.5-0.1-2.2h1.5l0.1,1.3h0c0.4-0.8,1.5-1.5,3-1.5c1.2,0,3.2,0.7,3.2,3.5v4.9h-1.6v-4.7
				c0-1.3-0.5-2.4-2.1-2.4c-1.1,0-1.9,0.7-2.2,1.5c-0.1,0.2-0.1,0.5-0.1,0.7v4.9h-1.6L104.5,23.9L104.5,23.9z"/>
			<path class="st0" d="M114.8,17.9h1.6v11.9h-1.6V17.9z"/>
			<path class="st0" d="M122.9,30c-2.4,0-4.3-1.6-4.3-4.2c0-2.7,2-4.3,4.5-4.3c2.6,0,4.3,1.7,4.3,4.2C127.4,28.7,125,30,122.9,30
				L122.9,30z M122.9,28.9c1.6,0,2.7-1.3,2.7-3.2c0-1.4-0.8-3.1-2.7-3.1c-1.9,0-2.8,1.6-2.8,3.2C120.2,27.6,121.3,28.9,122.9,28.9
				L122.9,28.9z"/>
			<path class="st0" d="M135.8,27.9c0,0.7,0,1.4,0.1,1.9h-1.5l-0.1-1h-0.1c-0.5,0.6-1.5,1.2-2.8,1.2c-1.8,0-2.8-1.2-2.8-2.3
				c0-2,1.9-3,5.4-3v-0.2c0-0.7-0.2-1.9-2-1.9c-0.9,0-1.7,0.2-2.4,0.6l-0.4-1c0.7-0.4,1.8-0.7,3-0.7c2.8,0,3.4,1.7,3.4,3.3
				L135.8,27.9L135.8,27.9z M134.2,25.7c-1.8,0-3.8,0.3-3.8,1.8c0,1,0.7,1.4,1.5,1.4c1.2,0,2-0.7,2.2-1.4c0.1-0.2,0.1-0.3,0.1-0.5
				V25.7z"/>
			<path class="st0" d="M146.2,17.9v9.8c0,0.7,0,1.5,0.1,2.1h-1.5l-0.1-1.4h0c-0.5,0.9-1.6,1.6-3.1,1.6c-2.2,0-3.9-1.7-3.9-4.1
				c0-2.7,1.9-4.4,4-4.4c1.4,0,2.3,0.6,2.7,1.2h0v-4.8H146.2z M144.6,25c0-0.2,0-0.4-0.1-0.6c-0.2-0.9-1.1-1.7-2.4-1.7
				c-1.7,0-2.7,1.3-2.7,3.1c0,1.7,0.9,3,2.7,3c1.1,0,2.1-0.7,2.4-1.8c0.1-0.2,0.1-0.4,0.1-0.6L144.6,25L144.6,25z"/>
			<path class="st0" d="M156.6,30c-2.4,0-4.3-1.6-4.3-4.2c0-2.7,2-4.3,4.5-4.3c2.6,0,4.3,1.7,4.3,4.2C161.1,28.7,158.7,30,156.6,30
				L156.6,30z M156.6,28.9c1.6,0,2.7-1.3,2.7-3.2c0-1.4-0.8-3.1-2.7-3.1c-1.9,0-2.8,1.6-2.8,3.2C153.9,27.6,155,28.9,156.6,28.9
				L156.6,28.9z"/>
			<path class="st0" d="M163.1,23.9c0-0.9,0-1.5-0.1-2.2h1.5l0.1,1.3h0c0.4-0.8,1.5-1.5,3-1.5c1.2,0,3.2,0.7,3.2,3.5v4.9h-1.6v-4.7
				c0-1.3-0.5-2.4-2.1-2.4c-1.1,0-1.9,0.7-2.2,1.5c-0.1,0.2-0.1,0.5-0.1,0.7v4.9h-1.6L163.1,23.9L163.1,23.9z"/>
			<path class="st0" d="M179.4,19.8v1.9h2.3v1.1h-2.3v4.4c0,1,0.3,1.6,1.2,1.6c0.4,0,0.7,0,1-0.1l0.1,1.1c-0.3,0.1-0.8,0.2-1.5,0.2
				c-0.8,0-1.4-0.2-1.8-0.6c-0.4-0.5-0.6-1.2-0.6-2.1v-4.4h-1.4v-1.1h1.4v-1.5L179.4,19.8z"/>
			<path class="st0" d="M183.6,17.9h1.6V23h0c0.3-0.4,0.7-0.8,1.2-1c0.5-0.3,1.1-0.4,1.7-0.4c1.2,0,3.2,0.7,3.2,3.5v4.8h-1.6v-4.7
				c0-1.3-0.5-2.4-2.1-2.4c-1.1,0-1.9,0.7-2.2,1.5c-0.1,0.2-0.1,0.4-0.1,0.7v4.9h-1.6V17.9L183.6,17.9z"/>
			<path class="st0" d="M194.9,26c0,2,1.4,2.8,3.1,2.8c1.2,0,1.9-0.2,2.5-0.4l0.3,1c-0.6,0.2-1.6,0.5-3,0.5c-2.8,0-4.4-1.7-4.4-4.1
				c0-2.5,1.6-4.4,4.3-4.4c2.9,0,3.7,2.3,3.7,3.8c0,0.3,0,0.5-0.1,0.7L194.9,26z M199.7,25c0-0.9-0.4-2.4-2.3-2.4
				c-1.7,0-2.4,1.4-2.5,2.4H199.7z"/>
		</g>
	</g>
</g>
</svg>
