<?xml version="1.0" encoding="utf-8"?>
<!-- Generator: Adobe Illustrator 25.2.3, SVG Export Plug-In . SVG Version: 6.00 Build 0)  -->
<svg version="1.1" id="Layer_1" xmlns="http://www.w3.org/2000/svg" xmlns:xlink="http://www.w3.org/1999/xlink" x="0px" y="0px"
	 viewBox="0 0 220 83.7" style="enable-background:new 0 0 220 83.7;" xml:space="preserve">
<style type="text/css">
	.st0{clip-path:url(#SVGID_2_);fill:url(#SVGID_3_);}
	.st1{clip-path:url(#SVGID_5_);fill:url(#SVGID_6_);}
	.st2{clip-path:url(#SVGID_8_);fill:url(#SVGID_9_);}
	.st3{clip-path:url(#SVGID_11_);fill:url(#SVGID_12_);}
	.st4{fill:#F9F9F9;}
	.st5{fill:#F9F9FA;}
</style>
<g>
	<path d="M217.5,67.5c0,5.3-4.2,9.5-9.5,9.5H12c-5.3,0-9.5-4.2-9.5-9.5V16.2c0-5.3,4.2-9.5,9.5-9.5H208c5.3,0,9.5,4.2,9.5,9.5V67.5
		L217.5,67.5z"/>
	<g id="PLAY_1_">
		<g>
			<g>
				<defs>
					<path id="SVGID_1_" d="M49.1,37.7l-9.7-5.6c0,0-17.6-10.2-18.7-10.8c-1.1-0.6-2.1-0.3-2.1,1c0,2.1,0,21.8,0,21.8s0,21.3,0,22.2
						s0.8,1.3,1.6,0.8C21.2,66.6,39.4,56,39.4,56l9.7-5.6c0,0,8.2-4.7,9.3-5.4c1.1-0.6,1-1.5,0.1-2C57.6,42.6,49.1,37.7,49.1,37.7z"
						/>
				</defs>
				<clipPath id="SVGID_2_">
					<use xlink:href="#SVGID_1_"  style="overflow:visible;"/>
				</clipPath>
				
					<linearGradient id="SVGID_3_" gradientUnits="userSpaceOnUse" x1="30.6656" y1="432.7867" x2="30.6656" y2="480.3958" gradientTransform="matrix(1 0 0 1 0 -412.5512)">
					<stop  offset="0" style="stop-color:#257CB0"/>
					<stop  offset="0.2863" style="stop-color:#4A93B5"/>
					<stop  offset="0.767" style="stop-color:#78BCBB"/>
					<stop  offset="1" style="stop-color:#89CFBD"/>
				</linearGradient>
				<polygon class="st0" points="18.7,20.2 18.7,44.1 18.7,67.8 42.7,44.1 				"/>
			</g>
		</g>
		<g>
			<g>
				<defs>
					<path id="SVGID_4_" d="M49.1,37.7l-9.7-5.6c0,0-17.6-10.2-18.7-10.8c-1.1-0.6-2.1-0.3-2.1,1c0,2.1,0,21.8,0,21.8s0,21.3,0,22.2
						s0.8,1.3,1.6,0.8C21.2,66.6,39.4,56,39.4,56l9.7-5.6c0,0,8.2-4.7,9.3-5.4c1.1-0.6,1-1.5,0.1-2C57.6,42.6,49.1,37.7,49.1,37.7z"
						/>
				</defs>
				<clipPath id="SVGID_5_">
					<use xlink:href="#SVGID_4_"  style="overflow:visible;"/>
				</clipPath>
				
					<linearGradient id="SVGID_6_" gradientUnits="userSpaceOnUse" x1="18.6688" y1="444.6154" x2="49.1336" y2="444.6154" gradientTransform="matrix(1 0 0 1 0 -412.5512)">
					<stop  offset="0" style="stop-color:#52C1AD"/>
					<stop  offset="1" style="stop-color:#DEE89A"/>
				</linearGradient>
				<polygon class="st1" points="49.1,37.7 39.4,32.1 18.7,20.1 18.7,20.2 42.7,44.1 				"/>
			</g>
		</g>
		<g>
			<g>
				<defs>
					<path id="SVGID_7_" d="M49.1,37.7l-9.7-5.6c0,0-17.6-10.2-18.7-10.8c-1.1-0.6-2.1-0.3-2.1,1c0,2.1,0,21.8,0,21.8s0,21.3,0,22.2
						s0.8,1.3,1.6,0.8C21.2,66.6,39.4,56,39.4,56l9.7-5.6c0,0,8.2-4.7,9.3-5.4c1.1-0.6,1-1.5,0.1-2C57.6,42.6,49.1,37.7,49.1,37.7z"
						/>
				</defs>
				<clipPath id="SVGID_8_">
					<use xlink:href="#SVGID_7_"  style="overflow:visible;"/>
				</clipPath>
				
					<linearGradient id="SVGID_9_" gradientUnits="userSpaceOnUse" x1="33.9012" y1="456.6122" x2="33.9012" y2="480.6059" gradientTransform="matrix(1 0 0 1 0 -412.5512)">
					<stop  offset="0" style="stop-color:#EC413D"/>
					<stop  offset="0.1668" style="stop-color:#DA4452"/>
					<stop  offset="0.5748" style="stop-color:#B0487A"/>
					<stop  offset="0.8619" style="stop-color:#954A92"/>
					<stop  offset="1" style="stop-color:#8A4A9D"/>
				</linearGradient>
				<polygon class="st2" points="18.7,67.8 18.7,68.1 39.4,56 49.1,50.4 42.7,44.1 				"/>
			</g>
		</g>
		<g>
			<g>
				<defs>
					<path id="SVGID_10_" d="M49.1,37.7l-9.7-5.6c0,0-17.6-10.2-18.7-10.8c-1.1-0.6-2.1-0.3-2.1,1c0,2.1,0,21.8,0,21.8
						s0,21.3,0,22.2s0.8,1.3,1.6,0.8C21.2,66.6,39.4,56,39.4,56l9.7-5.6c0,0,8.2-4.7,9.3-5.4c1.1-0.6,1-1.5,0.1-2
						C57.6,42.6,49.1,37.7,49.1,37.7z"/>
				</defs>
				<clipPath id="SVGID_11_">
					<use xlink:href="#SVGID_10_"  style="overflow:visible;"/>
				</clipPath>
				
					<linearGradient id="SVGID_12_" gradientUnits="userSpaceOnUse" x1="51.4237" y1="450.2252" x2="51.4237" y2="462.9993" gradientTransform="matrix(1 0 0 1 0 -412.5512)">
					<stop  offset="0" style="stop-color:#F58879"/>
					<stop  offset="0.1194" style="stop-color:#F69079"/>
					<stop  offset="0.7128" style="stop-color:#FCB877"/>
					<stop  offset="1" style="stop-color:#FEC874"/>
				</linearGradient>
				<polygon class="st3" points="49.1,37.7 42.7,44.1 49.1,50.4 60.2,44.1 				"/>
			</g>
		</g>
	</g>
	<g>
		<path class="st4" d="M169.8,53.3c-0.9,0-1.7-0.2-2.5-0.5c-0.8-0.3-1.4-0.8-1.9-1.6h-0.1c0.1,0.8,0.2,1.6,0.2,2.3v5.7h-2.1v-20h1.7
			l0.3,1.9h0.1c0.5-0.8,1.2-1.3,1.9-1.6c0.7-0.3,1.6-0.5,2.5-0.5c1.8,0,3.2,0.6,4.2,1.9s1.5,3,1.5,5.3c0,2.3-0.5,4-1.5,5.3
			C173,52.7,171.6,53.3,169.8,53.3z M169.5,40.8c-1.4,0-2.4,0.4-3.1,1.2c-0.6,0.8-1,2-1,3.7v0.5c0,1.9,0.3,3.3,1,4.2
			c0.6,0.8,1.7,1.3,3.1,1.3c1.2,0,2.1-0.5,2.8-1.5s1-2.3,1-4c0-1.7-0.3-3.1-1-4C171.7,41.2,170.7,40.8,169.5,40.8z"/>
		<path class="st4" d="M180.4,53.1h-2.1V33.5h2.1V53.1z"/>
		<path class="st4" d="M192.5,53.1l-0.4-2H192c-0.7,0.9-1.4,1.5-2.1,1.8c-0.7,0.3-1.6,0.5-2.6,0.5c-1.4,0-2.4-0.3-3.2-1.1
			c-0.8-0.7-1.2-1.7-1.2-3c0-2.8,2.2-4.2,6.7-4.4l2.4-0.1v-0.8c0-1.1-0.3-1.9-0.7-2.4c-0.5-0.5-1.2-0.8-2.2-0.8
			c-1.2,0-2.5,0.3-3.9,1.1l-0.6-1.6c0.7-0.4,1.4-0.7,2.2-0.9c0.8-0.2,1.6-0.3,2.4-0.3c1.6,0,2.9,0.4,3.7,1.1s1.2,1.9,1.2,3.5v9.5
			H192.5L192.5,53.1z M187.7,51.6c1.3,0,2.3-0.3,3.1-1.1c0.8-0.7,1.1-1.7,1.1-3v-1.3l-2.1,0.1c-1.7,0-2.9,0.3-3.6,0.8
			c-0.8,0.4-1.1,1.2-1.1,2.1c0,0.8,0.2,1.3,0.7,1.7C186.2,51.4,186.9,51.6,187.7,51.6z"/>
		<path class="st4" d="M195.2,39.3h2.3l3,7.9c0.7,1.8,1.1,3.1,1.3,3.9h0.1c0.1-0.4,0.3-1.2,0.7-2.2c0.3-1.1,1.5-4.2,3.4-9.6h2.2
			l-6,15.8c-0.6,1.6-1.3,2.6-2.1,3.3c-0.8,0.7-1.8,1-2.9,1c-0.6,0-1.3-0.1-1.9-0.2v-1.7c0.5,0.1,1,0.2,1.6,0.2
			c1.4,0,2.5-0.8,3.1-2.4l0.8-2L195.2,39.3z"/>
	</g>
	<g>
		<path class="st4" d="M130.9,40.5c0.7,0.5,2.1,1.7,2.1,3.9c0,2.1-1.2,3.2-2.4,4.1c-0.4,0.4-0.8,0.8-0.8,1.4c0,0.6,0.4,1,0.8,1.3
			l1.1,0.8c1.3,1.1,2.4,2.1,2.4,4.1c0,2.7-2.6,5.5-7.6,5.5c-4.2,0-6.2-2-6.2-4.2c0-1.1,0.5-2.5,2.2-3.5c1.8-1.1,4.2-1.3,5.5-1.3
			c-0.4-0.5-0.9-1.1-0.9-2c0-0.5,0.2-0.8,0.3-1.1c-0.3,0-0.6,0-0.9,0c-3.1,0-4.8-2.3-4.8-4.5c0-1.3,0.6-2.8,1.8-3.9
			c1.6-1.3,3.6-1.6,5.2-1.6h6l-1.8,1.1L130.9,40.5L130.9,40.5z M128.9,53.4c-0.2,0-0.4,0-0.7,0c-0.3,0-1.8,0-3,0.5
			c-0.6,0.3-2.5,0.9-2.5,3c0,2.1,2,3.5,5.1,3.5c2.8,0,4.2-1.3,4.2-3.1C132,55.7,131.1,55,128.9,53.4z M129.7,47.9
			c0.7-0.7,0.7-1.6,0.7-2.1c0-2.1-1.3-5.3-3.7-5.3c-0.8,0-1.6,0.4-2,1c-0.5,0.6-0.6,1.4-0.6,2.1c0,1.9,1.1,5.2,3.6,5.2
			C128.5,48.7,129.3,48.4,129.7,47.9z"/>
		<path class="st4" d="M112.7,52.9c-4.6,0-7.1-3.6-7.1-6.8c0-3.8,3.1-7,7.5-7c4.2,0,6.9,3.3,6.9,6.8
			C120.1,49.3,117.5,52.9,112.7,52.9z M116.3,50.6c0.7-0.9,0.9-2.1,0.9-3.2c0-2.6-1.2-7.4-4.8-7.4c-1,0-1.9,0.4-2.6,1
			c-1.1,1-1.3,2.3-1.3,3.5c0,2.9,1.4,7.6,4.9,7.6C114.5,52.1,115.7,51.5,116.3,50.6z"/>
		<path class="st4" d="M97,52.9c-4.6,0-7.1-3.6-7.1-6.8c0-3.8,3.1-7,7.5-7c4.2,0,6.9,3.3,6.9,6.8C104.4,49.3,101.8,52.9,97,52.9z
			 M100.7,50.6c0.7-0.9,0.9-2.1,0.9-3.2c0-2.6-1.2-7.4-4.8-7.4c-1,0-1.9,0.4-2.6,1c-1.1,1-1.3,2.3-1.3,3.5c0,2.9,1.4,7.6,4.9,7.6
			C98.8,52.1,100,51.5,100.7,50.6z"/>
		<path class="st4" d="M87.8,52.5l-4.2,1C82,53.7,80.4,54,78.8,54c-8,0-11.1-5.9-11.1-10.5c0-5.6,4.3-10.9,11.7-10.9
			c1.6,0,3.1,0.3,4.5,0.6c2.2,0.6,3.2,1.3,3.8,1.8l-2.4,2.3l-1,0.3l0.7-1.2c-1-1-2.8-2.7-6.2-2.7c-4.6,0-8.1,3.5-8.1,8.6
			c0,5.5,3.9,10.6,10.3,10.6c1.8,0,2.8-0.4,3.7-0.7v-4.7l-4.4,0.3l2.3-1.3h6.2l-0.8,0.7c-0.2,0.2-0.3,0.3-0.3,0.5c0,0.3,0,1.1,0,1.4
			L87.8,52.5L87.8,52.5z"/>
		<path class="st4" d="M140.1,51.7c-1-0.1-1.2-0.3-1.2-1.4v-0.3V33.8c0-0.1,0-0.1,0-0.2c0.1-1,0.4-1.2,1.3-1.7h-4.2l-2.2,1.1h2.2
			l0,0l0,0v17v1c0,0.6-0.1,0.7-0.8,1.6h5.1l1.1-0.6C141.1,51.8,140.7,51.7,140.1,51.7z"/>
		<path class="st4" d="M152,51.9c-0.3,0.2-0.6,0.4-1,0.5c-1,0.4-1.9,0.5-2.8,0.5c-0.9,0-2.4,0-3.8-1.1c-2.1-1.4-2.9-3.9-2.9-6.1
			c0-4.5,3.7-6.7,6.6-6.7c1.1,0,2.1,0.3,3,0.8c1.4,1,1.8,2.2,2,2.9l-6.8,2.7l-2.2,0.2c0.7,3.7,3.2,5.8,5.9,5.8c1.5,0,2.5-0.5,3.5-1
			L152,51.9z M149.3,43.3c0.5-0.2,0.8-0.4,0.8-0.8c0-1.2-1.3-2.5-2.9-2.5c-1.2,0-3.3,0.9-3.3,4c0,0.5,0,1,0.1,1.5L149.3,43.3z"/>
		<g>
			<path class="st4" d="M154.8,39.3v1.9h-0.2v-1.9h-0.6v-0.2h1.5v0.2H154.8z"/>
			<path class="st4" d="M157.4,41.2v-1.9l0,0l-0.6,1.9h-0.2l-0.6-1.9l0,0v1.9h-0.2v-2.1h0.4l0.5,1.7l0,0l0.5-1.7h0.4v2.1H157.4z"/>
		</g>
	</g>
	<g>
		<path class="st5" d="M73.5,26.9h-1.4c0-0.2-0.1-0.8-0.4-1.7h-2.1c-0.3,0.9-0.4,1.5-0.4,1.7h-1.3c0-0.1,0.3-1.1,1.1-2.9
			c0.7-1.8,1.1-2.8,1.1-3h1.7c0,0.2,0.3,1.1,1,2.9C73.2,25.7,73.5,26.7,73.5,26.9z M71.4,24.4c-0.5-1.6-0.8-2.4-0.8-2.5h-0.1
			c0,0.1-0.3,1-0.8,2.5C69.8,24.4,71.4,24.4,71.4,24.4z"/>
		<path class="st5" d="M79.3,26.9h-1.1c0-0.1-0.4-0.8-1.2-2c-0.9-1.3-1.3-2.1-1.5-2.6h-0.1c0.1,0.7,0.1,1.3,0.1,1.8
			c0,0.8,0,1.6,0,2.7h-1.1c0-0.9,0.1-2,0.1-3.1s0-2-0.1-2.8h1.3c0,0.2,0.4,0.8,1.1,1.9c0.8,1.2,1.3,2,1.3,2.4h0.1
			c-0.1-0.7-0.1-1.3-0.1-1.8c0-0.8,0-1.6,0-2.5h1.1c0,0.8,0,1.7,0,2.8C79.3,24.9,79.3,26,79.3,26.9z"/>
		<path class="st5" d="M85.9,23.8c0,0.8-0.3,1.6-0.8,2.2c-0.5,0.6-1.3,1-2.3,1c-0.5,0-1.1,0-1.8,0c0-0.9,0-1.9,0-3.1
			c0-1.1,0-2,0-2.8h0.8c0.1,0,0.3,0,0.6,0c0.3,0,0.4,0,0.5,0c1.1,0,1.9,0.3,2.4,0.8C85.6,22.3,85.9,23,85.9,23.8z M84.7,23.9
			c0-0.6-0.2-1.1-0.5-1.5c-0.3-0.4-0.8-0.6-1.6-0.6c-0.1,0-0.3,0-0.5,0c0,0.6,0,1.2,0,1.9c0,0.7,0,1.4,0,2.1c0.2,0,0.4,0,0.6,0
			c0.6,0,1.1-0.2,1.4-0.6C84.5,25,84.7,24.5,84.7,23.9z"/>
		<path class="st5" d="M91.9,26.9h-1.3c-0.3-1.1-0.6-1.7-0.8-2c-0.2-0.3-0.5-0.4-0.9-0.4c-0.2,0-0.3,0-0.5,0c0,0.8,0,1.6,0,2.4h-1.3
			c0-0.9,0-1.9,0-3.1c0-1.1,0-2,0-2.8H88c0.1,0,0.3,0,0.6,0c0.3,0,0.5,0,0.8,0c1.4,0,2.1,0.5,2.1,1.4c0,0.8-0.4,1.3-1.2,1.6v0.1
			c0.3,0.1,0.6,0.3,0.8,0.7C91.2,25.2,91.5,25.9,91.9,26.9z M90.2,22.8c0-0.6-0.4-0.9-1.2-0.9c-0.3,0-0.5,0-0.8,0.1
			c0,0.5,0,1.1,0,1.8c0.2,0,0.3,0,0.4,0C89.8,23.7,90.2,23.4,90.2,22.8z"/>
		<path class="st5" d="M98.4,23.8c0,0.9-0.3,1.7-0.8,2.3s-1.3,0.9-2.1,0.9c-0.8,0-1.5-0.3-2-0.8c-0.5-0.5-0.8-1.3-0.8-2.1
			c0-0.9,0.3-1.7,0.8-2.3c0.5-0.6,1.3-0.9,2.1-0.9c0.8,0,1.5,0.3,2,0.8S98.4,23,98.4,23.8z M97.2,24c0-0.6-0.2-1.1-0.5-1.5
			c-0.3-0.4-0.7-0.6-1.2-0.6s-0.8,0.2-1.1,0.6c-0.3,0.4-0.5,0.9-0.5,1.5s0.2,1.1,0.5,1.5c0.3,0.4,0.7,0.6,1.2,0.6s0.8-0.2,1.1-0.6
			C97,25.1,97.2,24.6,97.2,24z"/>
		<path class="st5" d="M100.9,26.9h-1.3c0-0.9,0-2,0-3.1c0-1.1,0-2,0-2.8h1.3c0,0.8,0,1.7,0,2.8C100.9,24.9,100.9,26,100.9,26.9z"/>
		<path class="st5" d="M107.5,23.8c0,0.8-0.3,1.6-0.8,2.2c-0.5,0.6-1.3,1-2.3,1c-0.5,0-1.1,0-1.8,0c0-0.9,0-1.9,0-3.1
			c0-1.1,0-2,0-2.8h0.8c0.1,0,0.3,0,0.6,0c0.3,0,0.4,0,0.5,0c1.1,0,1.9,0.3,2.4,0.8C107.2,22.3,107.5,23,107.5,23.8z M106.3,23.9
			c0-0.6-0.2-1.1-0.5-1.5c-0.3-0.4-0.8-0.6-1.6-0.6c-0.1,0-0.3,0-0.5,0c0,0.6,0,1.2,0,1.9c0,0.7,0,1.4,0,2.1c0.2,0,0.4,0,0.6,0
			c0.6,0,1.1-0.2,1.4-0.6C106.1,25,106.3,24.5,106.3,23.9z"/>
		<path class="st5" d="M116.2,26.9h-1.4c0-0.2-0.1-0.8-0.4-1.7h-2.1c-0.3,0.9-0.4,1.5-0.4,1.7h-1.3c0-0.1,0.3-1.1,1.1-2.9
			c0.7-1.8,1.1-2.8,1.1-3h1.7c0,0.2,0.3,1.1,1,2.9C115.9,25.7,116.2,26.7,116.2,26.9z M114.1,24.4c-0.5-1.6-0.8-2.4-0.8-2.5h-0.1
			c0,0.1-0.3,1-0.8,2.5H114.1z"/>
		<path class="st5" d="M121.5,22.5c0,0.7-0.3,1.3-0.8,1.6s-1.2,0.5-2,0.5c-0.1,0-0.3,0-0.3,0c0,0.5,0,1.3,0,2.2h-1.3
			c0-0.9,0-1.9,0-3.1c0-1.1,0-2,0-2.8h0.8c0.1,0,0.3,0,0.6,0c0.3,0,0.6,0,0.8,0c0.6,0,1.1,0.1,1.5,0.4
			C121.2,21.6,121.5,22,121.5,22.5z M120.3,22.8c0-0.6-0.4-1-1.3-1c-0.2,0-0.4,0-0.7,0.1c0,0.5,0,1.2,0,1.9c0.1,0,0.2,0,0.3,0
			C119.7,23.8,120.3,23.5,120.3,22.8z"/>
		<path class="st5" d="M126.9,22.5c0,0.7-0.3,1.3-0.8,1.6c-0.5,0.3-1.2,0.5-2,0.5c-0.1,0-0.3,0-0.3,0c0,0.5,0,1.3,0,2.2h-1.3
			c0-0.9,0-1.9,0-3.1c0-1.1,0-2,0-2.8h0.8c0.1,0,0.3,0,0.6,0c0.3,0,0.6,0,0.8,0c0.6,0,1.1,0.1,1.5,0.4
			C126.7,21.6,126.9,22,126.9,22.5z M125.7,22.8c0-0.6-0.4-1-1.3-1c-0.2,0-0.4,0-0.7,0.1c0,0.5,0,1.2,0,1.9c0.1,0,0.2,0,0.3,0
			C125.1,23.8,125.7,23.5,125.7,22.8z"/>
		<path class="st5" d="M135.7,23.8c0,0.9-0.3,1.7-0.8,2.3s-1.3,0.9-2.1,0.9c-0.8,0-1.5-0.3-2-0.8c-0.5-0.5-0.8-1.3-0.8-2.1
			c0-0.9,0.3-1.7,0.8-2.3c0.6-0.6,1.3-0.9,2.1-0.9c0.8,0,1.5,0.3,2,0.8S135.7,23,135.7,23.8z M134.5,24c0-0.6-0.2-1.1-0.5-1.5
			c-0.3-0.4-0.7-0.6-1.2-0.6c-0.4,0-0.8,0.2-1.1,0.6c-0.3,0.4-0.5,0.9-0.5,1.5s0.2,1.1,0.5,1.5c0.3,0.4,0.7,0.6,1.2,0.6
			c0.4,0,0.8-0.2,1.1-0.6C134.3,25.1,134.5,24.6,134.5,24z"/>
		<path class="st5" d="M141.8,26.9h-1.1c0-0.1-0.4-0.8-1.3-2c-0.9-1.3-1.3-2.1-1.5-2.6h-0.1c0.1,0.7,0.1,1.3,0.1,1.8
			c0,0.8,0,1.6,0,2.7H137c0-0.9,0.1-2,0.1-3.1s0-2-0.1-2.8h1.3c0,0.2,0.4,0.8,1.1,1.9c0.8,1.2,1.3,2,1.3,2.4h0.1
			c-0.1-0.7-0.1-1.3-0.1-1.8c0-0.8,0-1.6,0-2.5h1.1c0,0.8,0,1.7,0,2.8C141.7,24.9,141.8,26,141.8,26.9z"/>
	</g>
</g>
</svg>
