<?xml version="1.0" encoding="utf-8"?>
<!-- Generator: Adobe Illustrator 25.2.3, SVG Export Plug-In . SVG Version: 6.00 Build 0)  -->
<svg version="1.1" id="Layer_1" xmlns="http://www.w3.org/2000/svg" xmlns:xlink="http://www.w3.org/1999/xlink" x="0px" y="0px"
	 viewBox="0 0 459.88 136.59" style="enable-background:new 0 0 459.88 136.59;" xml:space="preserve">
<style type="text/css">
	.st0{fill-rule:evenodd;clip-rule:evenodd;fill:#262626;}
</style>
<g id="XMLID_3_">
	<g>
		<path id="XMLID_52_" class="st0" d="M28.63,5.87c1.29-0.35,2.66-0.14,3.94,0.16c1.92,0.48,3.91,1.01,5.49,2.27
			c0.81,0.63,1.53,1.56,1.45,2.64c0,18.41,0,36.83,0,55.25c-0.05,6.04,0.33,12.14-0.78,18.11c-0.84,4.85-2.72,9.68-6.2,13.26
			c-1.14,1.29-2.44,2.46-3.97,3.29c-1.28,0.69-2.69,1.3-4.18,1.18c-0.34-0.36-0.63-0.8-0.56-1.32c0.11-1.44,0.64-2.79,1.11-4.14
			c1.41-4.59,1.8-9.42,1.97-14.2c0.12-22.44,0.17-44.88,0.28-67.32c0.01-0.58-0.04-1.16-0.13-1.73c-0.86,0.04-1.4,0.75-1.98,1.28
			c-2.71,2.63-4.95,5.75-6.54,9.18c-2.08,4.37-3.15,9.17-3.58,13.98c-0.37,3.13-0.12,6.31,0.62,9.37c0.63,2.36,1.58,4.67,3.11,6.59
			c0.66,0.77,0.88,1.96,0.33,2.84c-0.82,0.84-2.09,0.4-3.05,0.09c-3.23-1.15-6.01-3.38-8.14-6.04c-2.55-3.22-3.63-7.38-3.7-11.43
			c0.24-3.59,1.22-7.09,2.51-10.43c1.89-4.94,4.69-9.54,8.28-13.44c2.33-2.44,4.9-4.64,7.69-6.54C24.48,7.55,26.46,6.43,28.63,5.87
			L28.63,5.87z M150.3,6.76c1.06-0.9,2.55-0.77,3.83-0.61c2.3,0.38,4.59,0.95,6.74,1.88c0.66,0.27,1.24,0.71,1.75,1.2
			c-0.2,5.02-0.41,10.05-0.68,15.06c5.06,0.23,10.12,0.51,15.17,0.81c0.88,0.04,2.05,0.29,2.2,1.34c0.2,1.55-0.03,3.21-0.76,4.61
			c-0.43,0.73-1.05,1.63-2.01,1.56c-4.91,0.08-9.82,0.24-14.73,0.31c-0.27,7.06-0.46,14.12-0.7,21.17
			c-0.13,6.44-0.72,12.9-0.03,19.32c0.31,2.49,0.63,5.08,1.84,7.33c0.49,0.97,1.4,1.81,2.52,1.95c1.46,0.14,2.9-0.47,3.99-1.41
			c1.73-1.48,2.92-3.47,3.95-5.48c1.2-2.32,2.06-4.78,2.84-7.26c0.29-1.09,0.06-2.23,0.17-3.35c0.07-5.9,1-11.82,3.02-17.37
			c1.52-4.03,3.68-8,7.09-10.74c3.71-3.1,9.16-4.14,13.66-2.24c2.91,1.13,5.27,3.43,6.73,6.16c0.19-1.29-0.11-2.71,0.47-3.92
			c0.82-1.32,2.55-1.38,3.94-1.26c1.85,0.21,3.71,0.67,5.35,1.59c0.99,0.56,1.99,1.48,2.03,2.71c-0.32,10.77-0.76,21.54-0.43,32.32
			c0.1,2.34,0.43,4.67,0.94,6.96c0.42,1.65,0.96,3.43,2.33,4.55c1.29,1,3.15,0.68,4.37-0.28c1.97-1.53,3.1-3.84,4.1-6.07
			c0.26-0.64,0.63-1.29,0.49-2c-0.74-6.46-0.88-13.03,0.17-19.46c0.74-4.32,2.04-8.6,4.27-12.4c2.26-3.87,5.54-7.25,9.63-9.18
			c0.79-0.33,1.58-0.74,2.45-0.81c4.03-0.03,8.2,1.3,11.07,4.22c0.74,0.8,1.37,1.71,1.94,2.64c0.26-1.21-0.01-2.49,0.42-3.66
			c0.65-1.36,2.4-1.44,3.7-1.27c2.19,0.36,4.43,0.83,6.39,1.94c1.2,0.71,1.21,2.26,1.14,3.49c-0.11,12.13-0.28,24.27-0.37,36.41
			c2.76-3.88,5.27-7.94,7.43-12.2c2.65-5.15,4.89-10.58,6.02-16.28c-1.51-1.37-2.89-3.03-3.34-5.06c-0.39-1.66-0.02-3.37,0.44-4.96
			c0.73-2.41,2.52-4.64,5.02-5.34c1.9-0.53,4.07-0.58,5.84,0.37c1.35,0.72,2.11,2.19,2.33,3.65c0.25,1.49,0.03,3-0.26,4.46
			c3.25-0.51,6.49-1.04,9.68-1.85c2.19-0.5,4.54-0.9,6.73-0.2c1.56,0.46,2.71,1.88,3.08,3.43c0.39,1.66,0.52,3.46-0.11,5.09
			c-0.86,2.15-1.06,4.47-1.54,6.71c-1.03,5.95-2.37,12.04-1.37,18.09c0.36,2.7,0.92,5.4,1.98,7.92c0.65,1.33,1.48,2.8,3,3.27
			c1.49,0.4,3.01-0.37,4.16-1.28c1.89-1.7,3.14-4.08,3.72-6.54c-1.28-6.35-1.58-12.93-0.56-19.34c0.74-4.81,2.11-9.56,4.44-13.85
			c1.83-3.24,4.38-6.23,7.78-7.86c3.78-1.87,8.46-1.87,12.15,0.22c2.28,1.18,4.03,3.17,5.33,5.36c0.2-1.31-0.14-2.76,0.57-3.95
			c1.04-1.29,2.94-1.22,4.43-1.01c2.19,0.39,4.59,0.92,6.13,2.67c0.99,1.1,0.51,2.65,0.52,3.97c-0.18,7.07-0.48,14.14-0.46,21.22
			c0.04,5.4-0.17,10.91,1.27,16.17c0.42,1.35,0.96,2.78,2.14,3.65c1.31,0.95,3.19,0.75,4.44-0.21c1.72-1.3,2.87-3.17,3.87-5.05
			c0.79-1.68,1.75-3.33,2.18-5.15c0.03-11.9,0.09-23.8,0.11-35.7c-0.08-1.01,0.28-2.18,1.29-2.61c0.73-0.45,1.59-0.12,2.37-0.03
			c2.1,0.39,4.32,0.46,6.26,1.45c0.73,0.36,1.5,1,1.44,1.89c-0.02,5.88,0,11.76-0.01,17.64c-0.01,0.68,0,1.36,0.07,2.04
			c1.74-5.37,3.56-10.71,5.63-15.95c0.82-1.94,1.66-3.88,2.73-5.7c0.8-1.46,2.67-1.7,4.17-1.61c3.2,0.24,6.58,1.62,8.28,4.48
			c0.61,1.04,0.88,2.26,0.88,3.46c-0.06,6.12,0.28,12.23,0.72,18.33c0.14,1.89,0.17,3.8,0.47,5.68c0.2-0.14,0.33-0.34,0.36-0.58
			c0.63-4.52,1.76-8.95,3.04-13.32c1.44-4.84,3.01-9.65,5.02-14.29c0.52-1.16,1.02-2.47,2.21-3.1c1.7-0.93,3.77-0.64,5.55-0.11
			c2.02,0.69,4.12,1.41,5.76,2.84c1.19,1.01,2.15,2.46,2.2,4.06c-0.5,9.47-0.96,18.98-0.25,28.45c0.2,2.61,0.51,5.22,1.17,7.76
			c0.39,1.43,0.88,2.87,1.78,4.07c0.85,1.15,2.48,1.74,3.84,1.19c1.21-0.47,2.02-1.58,2.62-2.68c1.42-2.63,1.82-5.63,2.62-8.47
			c0.2-0.86,0.59-1.81,1.51-2.11c0.65-0.41,1.33,0.1,1.85,0.48c0.67,0.62,0.47,1.61,0.48,2.42c-0.18,4.57-0.91,9.36-3.59,13.18
			c-2.13,3.17-5.98,5.21-9.83,4.76c-3.53-0.17-6.82-2.2-8.7-5.16c-2.41-3.65-3.38-8.02-4.02-12.29c-1.12-8.51-0.83-17.11-0.62-25.66
			c-0.35,0.23-0.58,0.58-0.75,0.95c-2.4,4.77-4.01,9.89-5.28,15.06c-1.67,6.71-2.71,13.58-2.94,20.5c0.03,0.89-0.67,1.57-1.49,1.77
			c-1.9,0.77-4.15,0.93-6.02,0.02c-1.92-0.89-3.31-2.63-4.17-4.52c-0.92-1.95-1.28-4.1-1.59-6.22c-1.13-8.79-1.52-17.65-1.96-26.5
			c0.06-0.64-0.67-0.23-1-0.17c-4.31,7.5-6.49,16.01-7.6,24.54c-0.69,4.96-0.91,9.96-0.98,14.96c-0.01,0.9-0.5,1.78-1.29,2.21
			c-1.48,0.84-3.26,0.8-4.9,0.67c-1.95-0.2-4.03-0.37-5.69-1.52c-0.7-0.46-1.17-1.25-1.2-2.09c-0.12-1.63-0.15-3.26-0.29-4.88
			c-0.9,1.31-1.64,2.73-2.71,3.91c-1.7,2.01-3.91,3.72-6.52,4.35c-3.68,0.84-7.79-0.37-10.34-3.18c-2.09-2.25-3.21-5.22-3.75-8.2
			c-1.85,4.03-4.85,7.63-8.83,9.69c-1.93,1.04-4.08,1.63-6.26,1.85c-2.39,0.29-4.9,0-7.06-1.1c-3.18-1.61-5.56-4.53-7-7.74
			c-1.68,3.79-4.59,7.43-8.75,8.54c-4.11,1.13-8.53-0.55-11.48-3.47c-3.75-3.68-5.72-8.84-6.31-13.99c-0.32-2.49-0.21-5.01-0.04-7.5
			c0.37-5.59,0.98-11.2,2.44-16.62c0.02-0.3,0.02-0.6,0.01-0.9c-3-0.14-6-0.04-8.99,0.04c-1.48,5.09-3.68,9.94-6.16,14.62
			c-4.26,8-9.48,15.47-15.34,22.38c0.07,6.65,0.27,13.3-0.05,19.95c-0.33,5.27-1.12,10.61-3.31,15.45c-1.67,3.61-4.3,6.89-7.86,8.78
			c-2.65,1.47-5.66,2.25-8.67,2.43c-3.75-0.27-7.64-1.2-10.57-3.68c-2.06-1.69-3.47-4.13-4.01-6.74c-0.39-2.27-0.51-4.66,0.23-6.87
			c1.33-4.16,4-7.73,6.86-10.96c2.9-3.29,6.26-6.13,9.42-9.16c2.54-2.37,5.09-4.74,7.64-7.1c0.04-1.84-0.24-3.69-0.3-5.53
			c-1.18,1.53-2.22,3.18-3.7,4.45c-3.67,3.56-8.96,5.39-14.04,4.73c-3.52-0.62-6.41-3.07-8.52-5.83c-0.8-1.01-1.51-2.09-2.13-3.22
			c-1.87,3.7-4.56,7.48-8.7,8.77c-4.12,1.17-8.79-0.52-11.5-3.78c-1.78-2.18-2.93-4.88-3.31-7.66c-1.73,3.73-4.39,7.11-7.93,9.26
			c-2.27,1.42-4.89,2.23-7.56,2.44c-2.89,0.35-5.9-0.35-8.3-2.01c-4.32-3.04-6.45-8.17-7.72-13.11c-0.67,2.2-1.76,4.25-2.89,6.24
			c-1.14,1.79-2.35,3.56-3.9,5.03c-1.81,1.77-4.08,3.19-6.63,3.53c-2.93,0.38-6.01-0.51-8.26-2.43c-1.83-1.56-3.19-3.59-4.17-5.77
			c-1.85-3.97-2.55-8.36-2.91-12.69c-2.28,5.04-4.98,10.01-8.97,13.92c-3.06,3.12-6.94,5.51-11.21,6.54
			c-3.37,0.87-6.89,0.78-10.32,0.47c-2.97-0.3-5.99-0.88-8.61-2.36c-1.26-0.76-2.55-1.79-2.93-3.27c-0.24-1.64,0.69-3.12,1.59-4.4
			c0.88-1.18,1.87-2.42,3.29-2.94c1.33-0.43,2.47,0.64,3.51,1.31c1.6,1.41,3.42,2.68,5.54,3.14c2.07,0.54,4.55-0.14,5.77-1.97
			c1.12-1.7,1.44-3.8,1.55-5.79c-0.02-3.77-2.44-6.98-4.99-9.54c-2.39-2.28-4.89-4.45-7.35-6.65c-3.51,5.97-7.27,11.79-10.82,17.73
			c-2.12,3.81-4.68,7.43-7.93,10.37c-2.35,2.09-5.16,3.89-8.34,4.32c-2.13,0.32-4.28-0.74-5.59-2.4c-1.71-2.16-2.43-4.89-2.84-7.57
			c-0.64-4.79-0.4-9.63-0.33-14.45c0.08-6.13,0.4-12.24,0.61-18.36c0.03-1.31,0.2-2.62,0.06-3.94c-0.41,0.09-0.9,0.1-1.16,0.49
			c-5.86,6.6-9.52,14.8-12.35,23.07c-2.41,7.24-4.14,14.7-5.26,22.24c-0.95,0.77-2.2,0.99-3.39,0.79c-1.43-0.21-2.9-0.01-4.31-0.31
			c-1.27-0.34-2.16-1.44-2.65-2.6c-1.03-2.39-1.16-5.05-1.13-7.62c0.12-14.49,0.21-28.97,0.32-43.45c-0.03-0.7,0.16-1.58,0.91-1.83
			c1.5-0.48,3.09-0.07,4.58,0.25c1.67,0.44,3.5,0.86,4.76,2.14c0.64,0.61,0.37,1.56,0.42,2.34c-0.03,8.04-0.15,16.07-0.11,24.11
			c2.63-7.12,5.24-14.35,9.34-20.78c0.92-1.32,1.79-2.69,2.92-3.85c1.95-2.27,4.64-4.27,7.75-4.34c2.34-0.09,4.47,0.99,6.52,1.98
			c1.89,0.96,3.73,2.34,4.51,4.39c0.5,1.2,0.31,2.53,0.28,3.79c-0.2,6.91-0.41,13.82-0.65,20.74c-0.05,2.82-0.27,5.64-0.1,8.46
			c0.08,1.34,0.23,2.7,0.7,3.97c0.29,0.7,0.7,1.52,1.54,1.66c0.79,0.09,1.44-0.48,2.01-0.95c1.27-1.16,2.31-2.55,3.33-3.93
			c2.9-4.03,5.38-8.33,7.86-12.62c1.45-2.66,2.97-5.28,4.32-7.99c-0.47-0.79-1.2-1.42-1.62-2.26c-1.6-2.59-2.04-5.84-1.2-8.75
			c0.76-2.85,2.55-5.38,4.9-7.16c1.66-1.17,3.59-1.94,5.58-2.33c1.9-0.49,4.01-0.21,5.69,0.81c1.16,0.71,1.76,2.07,1.8,3.39
			c0.11,2.49-0.82,4.89-1.99,7.05c-1.13,2.14-2.6,4.07-4.15,5.93c4.95,3.61,10.1,7.06,14.37,11.49c2.24,2.36,4.1,5.27,4.48,8.57
			c0.26,1.7,0.03,3.42-0.23,5.11c4.66-4.06,8.28-9.63,9.22-15.81c0.12-9.44,0.09-18.89,0.2-28.34c-4.32-0.08-8.64-0.09-12.96-0.2
			c-0.85-0.51-1.03-1.6-1.07-2.51c0.01-2.17,0.61-4.43,2.09-6.07c0.23-0.34,0.66-0.24,1.02-0.26c3.85,0.05,7.7,0.1,11.55,0.15
			c0.19-4.37,0.29-8.75,0.45-13.12C149.48,9.18,149.44,7.78,150.3,6.76L150.3,6.76z M197.42,43.22c-2.53,0.51-4.41,2.54-5.59,4.73
			c-1.57,2.96-2.32,6.28-2.8,9.58c-0.58,4.29-0.77,8.64-0.54,12.97c0.24,3.33,0.69,6.75,2.22,9.76c0.86,1.64,2.17,3.15,3.96,3.79
			c1.17,0.46,2.54,0.41,3.66-0.19c2.29-1.18,3.85-3.36,5-5.6c2.03-4.13,2.9-8.72,3.35-13.27c0.37-4.73,0.5-9.58-0.64-14.22
			c-0.6-2.21-1.53-4.43-3.25-6.01C201.38,43.42,199.32,42.77,197.42,43.22L197.42,43.22z M251.19,43.38
			c-3.04,0.83-5.15,3.47-6.51,6.17c-1.98,4.21-2.79,8.86-3.14,13.47c-0.22,5.17-0.28,10.49,1.32,15.48c0.8,2.35,2.17,4.77,4.53,5.84
			c1.47,0.71,3.26,0.55,4.64-0.31c1.17-0.76,2.18-1.75,2.99-2.89c1.88-2.57,3-5.62,3.76-8.69c1.12-4.57,1.49-9.29,1.46-13.98
			c-0.04-3.21-0.33-6.46-1.33-9.52c-0.66-1.87-1.66-3.75-3.33-4.9C254.33,43.14,252.66,42.93,251.19,43.38L251.19,43.38z
			 M344.49,43.78c-2.65,0.42-4.67,2.48-5.87,4.77c-2.16,4.07-2.81,8.73-3.21,13.27c-0.34,5.1-0.47,10.3,0.72,15.31
			c0.61,2.44,1.62,4.93,3.61,6.56c1.3,1.04,3.11,1.63,4.73,1.03c2.12-0.71,3.59-2.53,4.78-4.34c2.71-4.49,3.72-9.77,4.22-14.93
			c0.38-4.69,0.49-9.5-0.67-14.1c-0.58-2.26-1.56-4.54-3.36-6.1C348.12,44.06,346.25,43.44,344.49,43.78L344.49,43.78z
			 M257.56,100.38c-4.68,4.62-9.02,9.81-11.62,15.91c-0.94,2.18-1.44,4.64-0.76,6.96c0.45,1.8,1.88,3.34,3.7,3.81
			c2.26,0.59,4.83,0.59,6.87-0.68c1.84-1.22,3.04-3.18,3.77-5.23c1.39-3.93,1.66-8.13,1.85-12.26c0.06-4.04,0.18-8.08,0.2-12.12
			C260.11,97.82,258.9,99.17,257.56,100.38L257.56,100.38z"/>
	</g>
</g>
</svg>
